<?xml version="1.0" encoding="utf-8"?>
<!-- Generator: Adobe Illustrator 26.2.1, SVG Export Plug-In . SVG Version: 6.00 Build 0)  -->
<svg version="1.1" id="圖層_1" xmlns="http://www.w3.org/2000/svg" xmlns:xlink="http://www.w3.org/1999/xlink" x="0px" y="0px"
	 viewBox="0 0 150 150" style="enable-background:new 0 0 150 150;" xml:space="preserve">
<style type="text/css">
	.st0{fill:#74BA2A;}
	.st1{fill:#FFFCFB;}
	.st2{fill:#FF4B27;}
</style>
<g>
	<g id="形状_152">
		<g>
			<path class="st0" d="M149.6,18.7c-12.4,15.7-25.1,16.1-74.8,17.1c-41.1,0.8-49.6,58.6-51.4,78.6C15.4,117.5,5,121.1,0,121v5.7
				c0,0,8.4,2,23.9-5.4C163.4,171,149.6,18.7,149.6,18.7z"/>
		</g>
	</g>
	<g id="形状_153">
		<g>
			<path class="st1" d="M34.5,109.7c0,0,44.5-3,97.8-62.6L34.5,109.7z"/>
		</g>
	</g>
</g>
<g id="火_拷贝">
	<g>
		<path class="st2" d="M-69.2,10.9c1.5-1.3,2.6-2.1,2.6-2.1C-67.8,9.4-68.7,10.1-69.2,10.9z M-3,56c0,0-26.7-1-33.7,10.9
			c-5.1,8.7-3.5,15.1-7.5,14.5c-6.3-1-2.1-9.4,0-21.8c2.3-13.5-5.7-19.9-15-29c-7.8-7.7-13.1-15.3-10.1-19.7
			c-4.8,4.2-14.2,14.5-8.6,26.9c4.7,10.4,5.1,30.6-3.7,29c-11.4-2-10.3-18.2-7.5-29c2.8-10.9,4.5-20.6-3.7-25.4
			c0,0,2.3,16.8-7.5,21.8c-7.1,3.6-11.9,16.9-7.5,36.3c2.8,12.6-12.5,2.4-11.2-7.3c2-15.4-18.7-29.8-29.9-29c0,0,6.1,10,3.7,18.1
			c-2.4,8.2-5,14-7.5,21.8c0,0,3.2,5.4,0,18.1c-3.2,12.7,16.1,58,44.9,47.2c15-5.6,33.8-8.6,44.9-3.6c21,9.4,42.5-10.5,41.2-32.7
			C-23,81-16.8,60.4-3,56z"/>
	</g>
</g>
</svg>
