<?xml version="1.0" encoding="utf-8"?>
<!-- Generator: Adobe Illustrator 26.2.1, SVG Export Plug-In . SVG Version: 6.00 Build 0)  -->
<svg version="1.1" id="圖層_1" xmlns="http://www.w3.org/2000/svg" xmlns:xlink="http://www.w3.org/1999/xlink" x="0px" y="0px"
	 viewBox="0 0 250 63.9" style="enable-background:new 0 0 250 63.9;" xml:space="preserve">
<style type="text/css">
	.st0{fill:#129B3B;}
	.st1{fill:#DFC44A;}
	.st2{fill:#595757;}
</style>
<g>
	<g>
		<g>
			<g>
				<g>
					<path class="st0" d="M0,18.4l5.2-0.3c0.1,1.6,0.4,2.8,0.9,3.3c0.8,0.9,2.3,1.4,4.4,1.4c1.8,0,3.1-0.3,3.9-1
						c0.8-0.6,1.2-1.4,1.2-2.3c0-0.8-0.3-1.4-1-2c-0.5-0.4-1.7-1-3.8-1.9c-2.1-0.9-3.6-1.6-4.5-2.2c-1-0.6-1.7-1.4-2.2-2.3
						c-0.5-1-0.8-2.1-0.8-3.3c0-2.2,0.8-4.1,2.4-5.5c1.6-1.5,4-2.2,7-2.2c3.1,0,5.5,0.7,7.2,2.2c1.7,1.5,2.6,3.4,2.8,5.8l-5.2,0.2
						C17.4,7,16.9,6,16.1,5.3c-0.8-0.7-2-1-3.5-1c-1.5,0-2.6,0.3-3.3,0.8c-0.7,0.5-1,1.2-1,2c0,0.8,0.3,1.4,0.9,1.9
						c0.6,0.5,1.9,1.2,3.9,2.1c3.1,1.3,5,2.4,5.8,3.2c1.2,1.2,1.9,2.8,1.9,4.6c0,2.3-0.9,4.3-2.8,6c-1.9,1.7-4.4,2.5-7.7,2.5
						c-2.3,0-4.3-0.4-5.9-1.1C2.8,25.5,1.6,24.4,1,23C0.3,21.7,0,20.1,0,18.4z"/>
					<path class="st1" d="M27.6,7.7h4.8L32,10c1.9-1.8,3.9-2.8,6-2.8c1.4,0,2.6,0.3,3.3,0.9c0.8,0.6,1.3,1.4,1.5,2.5
						c0.7-1,1.6-1.8,2.9-2.4c1.2-0.6,2.5-1,3.9-1c1.5,0,2.7,0.4,3.6,1.2c0.9,0.8,1.3,1.9,1.3,3.3c0,0.7-0.2,1.8-0.6,3.4l-2.5,11.7
						h-5.1l2.4-11.7c0.3-1.5,0.5-2.3,0.5-2.5c0-0.5-0.2-1-0.5-1.3c-0.3-0.3-0.8-0.5-1.5-0.5c-1.3,0-2.5,0.7-3.5,2
						c-0.7,1-1.4,2.7-1.9,5.2l-1.8,8.7H35l2.4-11.6c0.3-1.3,0.4-2.2,0.4-2.6c0-0.5-0.2-0.9-0.5-1.2c-0.3-0.3-0.8-0.5-1.4-0.5
						c-0.6,0-1.2,0.2-1.8,0.5c-0.6,0.3-1.1,0.8-1.6,1.4c-0.5,0.6-0.8,1.3-1.2,2.3c-0.2,0.4-0.4,1.4-0.7,2.9l-1.8,8.8h-5.1L27.6,7.7z
						"/>
					<path class="st1" d="M63.9,13.1l-5-0.4c0.6-1.7,1.6-3,3-4c1.4-1,3.3-1.4,5.7-1.4c2.4,0,4.3,0.5,5.4,1.5c1.2,1,1.8,2.2,1.8,3.6
						c0,0.6-0.1,1.2-0.2,1.8c-0.1,0.6-0.5,2.4-1.1,5.1c-0.5,2.3-0.8,3.9-0.8,4.8c0,0.8,0.1,1.7,0.4,2.7h-5c-0.2-0.7-0.4-1.4-0.4-2.2
						c-0.8,0.8-1.6,1.5-2.6,2c-1,0.5-2,0.7-3,0.7c-1.6,0-2.9-0.5-3.9-1.6c-1-1-1.5-2.4-1.5-4c0-1.8,0.6-3.3,1.7-4.4
						c1.1-1.1,3.2-1.8,6.1-2c2.5-0.2,4.1-0.5,4.9-0.7c0.2-0.7,0.3-1.3,0.3-1.7c0-0.6-0.2-1-0.7-1.4c-0.4-0.4-1.1-0.6-2-0.6
						c-0.9,0-1.6,0.2-2.2,0.6C64.5,11.9,64.1,12.4,63.9,13.1z M68.8,17.9c-0.3,0.1-0.7,0.2-1.2,0.2c-2.6,0.3-4.3,0.8-5.1,1.4
						c-0.6,0.4-0.8,1-0.8,1.8c0,0.6,0.2,1.1,0.6,1.5c0.4,0.4,1,0.6,1.7,0.6c0.8,0,1.5-0.2,2.2-0.6c0.7-0.4,1.2-0.9,1.5-1.5
						c0.3-0.6,0.6-1.5,0.9-2.8L68.8,17.9z"/>
					<path class="st1" d="M80.8,7.7h4.8l-0.8,3.7c1.8-2.7,3.7-4.1,5.8-4.1c0.7,0,1.5,0.2,2.4,0.6l-2,4.2c-0.5-0.2-1-0.3-1.5-0.3
						c-0.9,0-1.8,0.3-2.7,1c-0.9,0.7-1.6,1.6-2.2,2.7c-0.5,1.1-1,2.9-1.5,5.4l-1.2,6h-5.1L80.8,7.7z"/>
					<path class="st1" d="M92.7,11.6l0.8-3.9h2.6l0.6-3l5.9-3.6l-1.4,6.6h3l-0.8,3.9h-3.1l-1.7,8.1c-0.3,1.5-0.5,2.3-0.5,2.5
						c0,0.4,0.1,0.7,0.4,0.9c0.2,0.2,0.7,0.3,1.3,0.3c0.2,0,0.8,0,1.7-0.1l-0.8,3.8c-0.9,0.2-1.8,0.3-2.7,0.3
						c-1.8,0-3.1-0.4-3.9-1.1c-0.8-0.7-1.2-1.7-1.2-3c0-0.6,0.2-1.9,0.7-4.1l1.7-7.7H92.7z"/>
					<path class="st0" d="M109.3,26.9h-5.5l5.5-26.4h11.7c2,0,3.6,0.2,4.7,0.6c1.1,0.4,2,1.2,2.7,2.3c0.7,1.1,1,2.4,1,4
						c0,2.2-0.7,4.1-2,5.6c-1.3,1.5-3.4,2.4-6.1,2.7c0.7,0.6,1.3,1.4,2,2.5c1.2,2.1,2.6,5,4,8.7h-5.8c-0.5-1.5-1.4-3.8-2.7-7
						c-0.7-1.7-1.5-2.9-2.4-3.4c-0.5-0.3-1.4-0.5-2.7-0.5h-2.2L109.3,26.9z M112.4,12h2.9c2.9,0,4.8-0.2,5.8-0.5
						c1-0.3,1.7-0.9,2.2-1.6c0.5-0.7,0.8-1.5,0.8-2.3c0-1-0.4-1.7-1.2-2.2c-0.5-0.3-1.5-0.4-3.1-0.4h-6L112.4,12z"/>
					<path class="st1" d="M149,18.9H136c0,0.2,0,0.4,0,0.5c0,1.3,0.4,2.3,1.1,3.1c0.7,0.8,1.6,1.2,2.7,1.2c1.7,0,3-0.9,4-2.6
						l4.6,0.8c-0.9,1.9-2.1,3.3-3.6,4.2c-1.5,0.9-3.2,1.4-5.1,1.4c-2.6,0-4.6-0.8-6.3-2.4c-1.6-1.6-2.4-3.8-2.4-6.5
						c0-2.6,0.7-5,2.2-7c2-2.8,4.8-4.2,8.5-4.2c2.3,0,4.2,0.7,5.6,2.2c1.4,1.5,2.1,3.5,2.1,6.1C149.3,16.8,149.2,17.9,149,18.9z
						 M144.6,15.8c0-0.2,0-0.4,0-0.5c0-1.4-0.3-2.5-1-3.2c-0.6-0.7-1.5-1.1-2.6-1.1c-1.1,0-2,0.4-2.9,1.2c-0.8,0.8-1.4,2-1.7,3.6
						H144.6z"/>
					<path class="st1" d="M158.2,13.1l-5-0.4c0.6-1.7,1.6-3,3-4c1.4-1,3.3-1.4,5.7-1.4c2.4,0,4.3,0.5,5.4,1.5c1.2,1,1.8,2.2,1.8,3.6
						c0,0.6-0.1,1.2-0.2,1.8c-0.1,0.6-0.5,2.4-1.1,5.1c-0.5,2.3-0.8,3.9-0.8,4.8c0,0.8,0.1,1.7,0.4,2.7h-5c-0.2-0.7-0.4-1.4-0.4-2.2
						c-0.8,0.8-1.6,1.5-2.6,2c-1,0.5-2,0.7-3,0.7c-1.6,0-2.9-0.5-3.9-1.6c-1-1-1.5-2.4-1.5-4c0-1.8,0.6-3.3,1.7-4.4
						c1.1-1.1,3.2-1.8,6.1-2c2.5-0.2,4.1-0.5,4.9-0.7c0.2-0.7,0.3-1.3,0.3-1.7c0-0.6-0.2-1-0.7-1.4c-0.4-0.4-1.1-0.6-2-0.6
						c-0.9,0-1.6,0.2-2.2,0.6C158.8,11.9,158.4,12.4,158.2,13.1z M163.1,17.9c-0.3,0.1-0.7,0.2-1.2,0.2c-2.6,0.3-4.3,0.8-5.1,1.4
						c-0.6,0.4-0.8,1-0.8,1.8c0,0.6,0.2,1.1,0.6,1.5c0.4,0.4,1,0.6,1.7,0.6c0.8,0,1.5-0.2,2.2-0.6c0.7-0.4,1.2-0.9,1.5-1.5
						c0.3-0.6,0.6-1.5,0.9-2.8L163.1,17.9z"/>
					<path class="st1" d="M189.1,26.9h-4.9l0.4-2c-0.9,0.9-1.9,1.5-2.8,1.9c-0.9,0.4-1.9,0.6-3.1,0.6c-2,0-3.6-0.7-4.8-2
						c-1.2-1.4-1.8-3.4-1.8-6c0-3.1,0.9-5.8,2.6-8.3c1.8-2.5,4.1-3.7,7-3.7c2.6,0,4.6,1,5.9,3.1l2.1-9.9h5.1L189.1,26.9z
						 M177.1,19.1c0,1.4,0.3,2.4,1,3.2c0.7,0.8,1.6,1.2,2.6,1.2c0.9,0,1.8-0.3,2.7-1s1.5-1.6,2-3c0.5-1.3,0.7-2.6,0.7-3.8
						c0-1.4-0.4-2.5-1.1-3.4c-0.8-0.9-1.6-1.3-2.6-1.3c-1.5,0-2.8,0.8-3.8,2.5C177.6,15.4,177.1,17.2,177.1,19.1z"/>
					<path class="st1" d="M197.9,7.7h5.1l-4,19.1h-5.1L197.9,7.7z M199.5,0.5h5.1l-1,4.6h-5.1L199.5,0.5z"/>
					<path class="st1" d="M208.2,7.7h4.9l-0.5,2.5c1.2-1.1,2.4-1.8,3.5-2.3c1.1-0.5,2.2-0.7,3.4-0.7c1.6,0,2.8,0.5,3.8,1.4
						c0.9,0.9,1.4,2.1,1.4,3.6c0,0.7-0.2,1.9-0.7,3.8l-2.3,10.8h-5.1l2.3-10.8c0.3-1.6,0.5-2.6,0.6-2.9c0-0.7-0.2-1.2-0.6-1.6
						c-0.4-0.4-1-0.6-1.7-0.6c-0.8,0-1.6,0.3-2.6,1c-0.9,0.6-1.7,1.5-2.2,2.5c-0.4,0.7-0.9,2.3-1.4,4.6l-1.6,7.9h-5.1L208.2,7.7z"/>
					<path class="st1" d="M226.5,27.9l5.5,0.8c0,0.5,0.1,1,0.3,1.2c0.2,0.3,0.5,0.5,0.8,0.7c0.4,0.2,0.9,0.3,1.6,0.3
						c1.2,0,2.1-0.2,2.8-0.7c0.5-0.3,0.9-0.9,1.3-1.6c0.2-0.5,0.5-1.5,0.8-3.1l0.2-0.9c-1.9,1.5-3.8,2.2-5.8,2.2
						c-1.9,0-3.4-0.7-4.6-2c-1.2-1.3-1.8-3.2-1.8-5.8c0-2.2,0.4-4.3,1.2-6.2c0.8-1.9,1.9-3.3,3.4-4.2c1.5-1,3-1.4,4.5-1.4
						c1.3,0,2.4,0.3,3.4,1c1,0.7,1.9,1.6,2.4,2.8l0.7-3.4h4.8l-3,15.9c-0.6,2.6-1,4.4-1.4,5.5c-0.4,1.1-0.8,2-1.3,2.6
						c-0.5,0.7-1.1,1.2-1.9,1.6c-0.7,0.4-1.6,0.8-2.6,1c-1,0.2-2.1,0.3-3.3,0.3c-2.7,0-4.7-0.5-6.1-1.4c-1.4-0.9-2.1-2.5-2.1-4.6
						C226.4,28.4,226.5,28.2,226.5,27.9z M232.6,18.6c0,1.4,0.3,2.5,1,3.3c0.6,0.8,1.5,1.1,2.4,1.1c0.9,0,1.8-0.3,2.7-1
						c0.9-0.7,1.5-1.6,2-2.9c0.5-1.3,0.7-2.5,0.7-3.6c0-1.3-0.4-2.4-1.1-3.3c-0.8-0.8-1.6-1.2-2.6-1.2c-0.9,0-1.8,0.4-2.5,1.1
						c-0.8,0.7-1.4,1.8-1.9,3.4C232.8,16.6,232.6,17.6,232.6,18.6z"/>
				</g>
			</g>
		</g>
	</g>
	<g>
		<path class="st0" d="M1.8,52.3h4.5c0.3,0,0.4,0.1,0.4,0.3V59c0,0.6,0.1,1,0.3,1.3c0.1,0.3,0.3,0.5,0.6,0.7
			c0.4,0.2,0.8,0.4,1.3,0.5c0.6,0.1,1.4,0.1,2.2,0.1h5.3c2.1,0,4.5-0.2,7.3-0.7c0.1-0.1,0.3-0.1,0.4-0.1c0.1,0,0.2,0,0.2,0.1
			c-0.2,0.7-0.3,1.3-0.5,2c0,0.3-0.2,0.4-0.4,0.4H11.1c-0.6,0-1.2,0-1.7-0.1c-0.6-0.1-1.1-0.2-1.6-0.4c-0.5-0.2-0.9-0.4-1.3-0.7
			c-0.3-0.3-0.6-0.7-0.9-1.3l-0.1-0.1c-0.1,0-0.2,0-0.2,0.1c-1.7,1.2-2.6,2-2.7,2.5c0,0.1-0.1,0.1-0.2,0.1c-0.1,0-0.4-0.4-0.9-1.2
			c-0.1-0.1-0.1-0.3-0.1-0.5c1-0.4,2.1-1.1,3.6-2.1c0.1-0.1,0.1-0.2,0.1-0.5v-5.1H1.8c-0.2,0-0.3-0.1-0.3-0.4v-0.8
			C1.5,52.4,1.6,52.3,1.8,52.3z M3,46.3c0.9,0.5,1.6,1,2.1,1.4c0.6,0.5,1.2,1,1.7,1.4c0,0,0,0.1-0.1,0.2c-0.5,0.7-0.7,1-0.8,1
			c-0.7-0.7-1.5-1.3-2.3-1.8C3,48.1,2.5,47.7,2,47.6c0-0.1,0.3-0.5,0.8-1.1C2.9,46.3,3,46.3,3,46.3z M3.5,41.4
			c0.8,0.4,1.5,0.8,2.1,1.2c0.6,0.4,1.2,0.8,1.6,1.2c0,0,0,0.1-0.1,0.2c-0.5,0.7-0.7,1-0.8,1c-0.7-0.6-1.4-1.1-2.2-1.6
			c-0.6-0.4-1.2-0.7-1.6-0.8c0-0.1,0.3-0.5,0.8-1.1C3.4,41.4,3.4,41.4,3.5,41.4z M15.4,40.6c1.2,0,1.9,0.1,1.9,0.3
			c0,0.2-0.1,0.3-0.3,0.4c-0.2,0-0.2,0.2-0.2,0.5V43h6.6c0.1,0,0.2,0.1,0.2,0.3V44c0,0.2-0.1,0.3-0.2,0.3h-4.2l0.9,0.4
			c0.2,0.1,0.4,0.2,0.4,0.3c0,0.1-0.1,0.2-0.2,0.2c-0.1,0-0.2,0.1-0.3,0.2c-0.3,0.7-0.5,1.3-0.8,1.8h3.1c0.3,0,0.5,0.1,0.5,0.3v11.5
			c0,0.5-0.2,0.8-0.7,1.1c-0.5,0.2-1.1,0.3-1.8,0.4c-0.2,0-0.3-0.1-0.3-0.3c0-0.4-0.2-0.9-0.6-1.6c0,0,0-0.1,0.1-0.1
			c0.7,0,1.1-0.1,1.3-0.2c0.2-0.1,0.2-0.3,0.2-0.5v-9.4h-4.5v1.8H20c0.1,0,0.2,0.1,0.2,0.3v0.8c0,0.2-0.1,0.3-0.2,0.3h-3.5v1.8h2.2
			c0.3,0,0.4,0.1,0.4,0.3v4.3c0,0.2-0.1,0.3-0.4,0.3h-4.9v0.7c0,0.2-0.1,0.3-0.4,0.3h-1c-0.2,0-0.3-0.1-0.3-0.3V54
			c0-0.2,0.1-0.3,0.3-0.3h2.2v-1.8h-3c-0.1,0-0.2-0.1-0.2-0.3v-0.8c0-0.2,0.1-0.3,0.2-0.3h3v-1.8h-4.1v11.2c0,0.2-0.1,0.3-0.4,0.3
			h-1c-0.3,0-0.4-0.1-0.4-0.3V47.6c0-0.2,0.1-0.3,0.4-0.3h3.5c0-0.1-0.1-0.2-0.1-0.3c-0.3-0.6-0.6-1.2-1.1-1.8
			c0-0.1,0.4-0.4,1.3-0.8c0.5,0.6,0.8,1.2,1.1,1.8c0.2,0.4,0.4,0.7,0.5,1.1h2.7c0.3-0.5,0.6-0.9,0.7-1.2c0.3-0.5,0.5-1.1,0.7-1.7
			c0,0,0,0,0,0H8.5c-0.1,0-0.2-0.1-0.2-0.3v-0.8c0-0.2,0.1-0.3,0.2-0.3h6.5v-2C15.1,40.7,15.2,40.6,15.4,40.6z M13.9,57.2h3.6V55
			h-3.6V57.2z"/>
		<path class="st0" d="M29.3,45.3c1.2,0.3,1.8,0.5,1.8,0.6c0,0.2-0.1,0.3-0.3,0.4c-0.2,0.2-0.3,0.3-0.3,0.6
			c-0.2,1.7-0.4,3.2-0.6,4.3c-0.1,0.6-0.3,1.2-0.6,1.9c-0.1,0.1-0.1,0.2-0.2,0.2c-0.6-0.2-1-0.3-1.4-0.3c-0.1,0-0.2-0.1-0.2-0.2
			c0.3-0.8,0.6-1.7,0.9-2.7c0.3-1,0.5-2.4,0.6-4.3C29,45.4,29.1,45.3,29.3,45.3z M31.8,40.5c1.2,0,1.8,0.1,1.8,0.3
			c0,0.2-0.1,0.3-0.2,0.4c-0.2,0-0.2,0.2-0.2,0.5v21.4c0,0.2-0.1,0.3-0.4,0.3h-1c-0.3,0-0.4-0.1-0.4-0.3V40.8
			C31.4,40.6,31.5,40.5,31.8,40.5z M35,45.1c0.1,0,0.2,0,0.3,0.1c0.5,1.1,0.9,2.3,1.3,3.6c0,0.2-0.1,0.3-0.2,0.4
			c-0.6,0.4-1,0.6-1.4,0.6c-0.4-1.6-0.7-2.9-1.1-3.9C33.9,45.7,34.3,45.5,35,45.1z M38.7,42.5l1.7,0.6c0.2,0.1,0.3,0.3,0.3,0.4
			c0,0.1-0.1,0.2-0.2,0.3c-0.1,0-0.2,0.1-0.2,0.3c-0.1,0.8-0.3,1.5-0.4,2H43v-5.2c0-0.2,0.1-0.3,0.4-0.3c1.2,0,1.8,0.1,1.8,0.3
			c0,0.2-0.1,0.3-0.2,0.4c-0.2,0-0.2,0.2-0.2,0.5v4.3h5.4c0.2,0,0.3,0.1,0.3,0.4v0.8c0,0.3-0.1,0.4-0.3,0.4h-5.4v5.7h4.9
			c0.2,0,0.3,0.1,0.3,0.4v0.8c0,0.3-0.1,0.4-0.3,0.4h-4.9v6h6.1c0.2,0,0.3,0.1,0.3,0.4v0.8c0,0.2-0.1,0.4-0.3,0.4H36.5
			c-0.2,0-0.3-0.1-0.3-0.4v-0.8c0-0.3,0.1-0.4,0.3-0.4H43v-6h-4.8c-0.2,0-0.3-0.1-0.3-0.4v-0.8c0-0.3,0.1-0.4,0.3-0.4H43v-5.7h-3.6
			c-0.2,0.8-0.5,1.5-0.8,2.2c-0.3,0.7-0.6,1.3-0.9,1.8c-0.2,0-0.4,0-0.5-0.1c-0.3-0.1-0.6-0.3-0.9-0.4c-0.1-0.1-0.2-0.1-0.2-0.1
			c0-0.1,0-0.1,0.1-0.2c0.5-0.8,0.9-1.8,1.3-2.9c0.2-0.7,0.4-1.4,0.6-2.1c0.2-0.8,0.4-1.8,0.5-3.1C38.6,42.6,38.6,42.5,38.7,42.5z"
			/>
		<path class="st0" d="M56.2,41h8.2c0.3,0,0.4,0.1,0.4,0.3v7c0,0.2-0.1,0.3-0.4,0.3h-6.8V63c0,0.2-0.1,0.3-0.4,0.3h-1
			c-0.3,0-0.4-0.1-0.4-0.3V41.4C55.8,41.1,55.9,41,56.2,41z M57.5,44.1h5.6v-1.7h-5.6V44.1z M57.5,47.3h5.6v-1.7h-5.6V47.3z
			 M62.1,50.1l1.5,0.6c0.2,0.1,0.4,0.2,0.4,0.3c0,0.1-0.1,0.1-0.3,0.2c-0.3,0-0.5,0.1-0.6,0.2c-0.5,0.5-0.9,0.9-1.4,1.2h8.6
			c-0.2-0.1-0.3-0.2-0.4-0.3c-0.4-0.4-0.7-0.8-0.9-1.2c0,0-0.1-0.1-0.1-0.1h-3.5c-0.2,0-0.3-0.1-0.3-0.4v-0.8c0-0.2,0.1-0.3,0.3-0.3
			h4.5c0.3,0,0.4,0.1,0.4,0.3c0,0.4,0.1,0.7,0.3,1c0.2,0.3,0.4,0.5,0.7,0.8c0.3,0.2,0.7,0.4,1.2,0.6c0.4,0.1,0.8,0.2,1.2,0.3
			c0.1,0,0.2,0,0.2,0.1c0,0-0.1,0.1-0.2,0.2c-0.3,0.3-0.5,0.6-0.8,0.8c-0.1,0.1-0.3,0.1-0.5,0.1c-0.3-0.1-0.7-0.2-1.1-0.4
			C71.1,53.1,71,53,70.9,53v4.5c0,0.2-0.1,0.3-0.4,0.3h-2.1v1.9c0,0.6,0.4,1,1.2,1h1c0.1,0,0.2-0.1,0.3-0.2c0.1-0.1,0.1-0.5,0.1-1.2
			c0-0.1,0-0.1,0-0.1c0.4,0.2,0.9,0.4,1.4,0.4c0.2,0,0.3,0.1,0.3,0.3c-0.1,1-0.3,1.6-0.5,2c-0.1,0.3-0.4,0.4-0.7,0.4h-2.6
			c-1.3,0-1.9-0.5-1.9-1.5v-2.9H65c0,0.5,0,0.9-0.1,1.2c-0.1,0.5-0.2,0.9-0.4,1.3c-0.2,0.4-0.5,0.7-0.9,1.1
			c-0.4,0.3-0.9,0.6-1.5,0.8c-0.5,0.2-1,0.3-1.6,0.4c-0.1,0-0.2-0.1-0.3-0.2c-0.2-0.3-0.4-0.6-0.6-0.9c0-0.1-0.1-0.2-0.1-0.2
			c0.8-0.1,1.5-0.3,1.9-0.4c0.4-0.1,0.7-0.3,0.9-0.5c0.2-0.2,0.4-0.4,0.6-0.6c0.2-0.3,0.3-0.6,0.4-0.9c0-0.2,0.1-0.5,0.1-1h-1.8
			c-0.3,0-0.4-0.1-0.4-0.3v-4.5c-0.2,0.1-0.4,0.3-0.6,0.4c-0.2,0.1-0.4,0.1-0.5,0.1c-0.1,0-0.3,0-0.4-0.1c-0.3-0.1-0.7-0.3-0.9-0.4
			c-0.1,0-0.2-0.1-0.2-0.1c0,0,0-0.1,0.1-0.1c0.8-0.4,1.4-0.8,1.8-1.1c0.6-0.4,1-0.8,1.3-1.3C61.9,50.1,62,50.1,62.1,50.1z
			 M69.1,56.3v-2.2H63v2.2H69.1z M67.8,41H76c0.3,0,0.5,0.1,0.5,0.3v19.5c0,0.8-0.3,1.5-0.9,1.9c-0.6,0.3-1.3,0.6-2.2,0.7
			c-0.2,0-0.3-0.1-0.3-0.3c0-0.4-0.2-0.9-0.6-1.6c0-0.1,0.1-0.1,0.2-0.1c1,0,1.6-0.1,1.7-0.3c0.2-0.2,0.3-0.5,0.3-1V48.6h-7
			c-0.3,0-0.4-0.1-0.4-0.3v-7C67.4,41.1,67.5,41,67.8,41z M69.1,44.1h5.6v-1.7h-5.6V44.1z M69.1,47.3h5.6v-1.7h-5.6V47.3z"/>
		<path class="st0" d="M81.9,44.7h7.5c0.2,0,0.3,0.1,0.3,0.4v0.8c0,0.3-0.1,0.4-0.3,0.4h-7.5c-0.2,0-0.3-0.1-0.3-0.4v-0.8
			C81.6,44.9,81.7,44.7,81.9,44.7z M82.5,55.5h6.1c0.3,0,0.4,0.1,0.4,0.3v6.7c0,0.2-0.1,0.3-0.4,0.3h-1c-0.2,0-0.3-0.1-0.3-0.3v-0.8
			h-3.5v1.2c0,0.2-0.1,0.3-0.4,0.3h-1c-0.2,0-0.3-0.1-0.3-0.3v-7.1C82.2,55.6,82.3,55.5,82.5,55.5z M83,41.1h5.4
			c0.2,0,0.3,0.1,0.3,0.4v0.8c0,0.3-0.1,0.4-0.3,0.4H83c-0.2,0-0.3-0.1-0.3-0.4v-0.8C82.7,41.3,82.8,41.1,83,41.1z M83,48.2h5.4
			c0.2,0,0.3,0.1,0.3,0.4v0.8c0,0.3-0.1,0.4-0.3,0.4H83c-0.2,0-0.3-0.1-0.3-0.4v-0.8C82.7,48.4,82.8,48.2,83,48.2z M83,51.7h5.4
			c0.2,0,0.3,0.1,0.3,0.4v0.8c0,0.2-0.1,0.4-0.3,0.4H83c-0.2,0-0.3-0.1-0.3-0.4v-0.8C82.7,51.9,82.8,51.7,83,51.7z M83.9,60.2h3.5
			V57h-3.5V60.2z M91.8,53h10.8c0.3,0,0.4,0.1,0.4,0.3v7.3c0,0.2-0.1,0.3-0.4,0.3h-2.3c0.5,0.3,0.9,0.5,1.3,0.7
			c0.5,0.2,1.2,0.5,2.2,0.8c0.1,0.1,0.2,0.1,0.2,0.2c0,0.1-0.3,0.5-1,1.2c0,0-0.1,0-0.2,0c-1.9-0.7-3.3-1.4-4.2-2.1
			c-0.1-0.1-0.1-0.1-0.1-0.1c0-0.1,0.2-0.3,0.5-0.6h-3.6c0.6,0.5,0.9,0.8,0.9,0.9c0,0.1-0.1,0.2-0.3,0.2c-0.3,0-0.5,0-0.5,0.1
			c-1.3,0.8-2.7,1.4-4.1,1.8c-0.2,0-0.3-0.1-0.4-0.2c-0.1-0.2-0.3-0.4-0.5-0.6c-0.1-0.1-0.2-0.2-0.2-0.3c0-0.1,0.1-0.1,0.2-0.1
			c0.8-0.2,1.4-0.5,2-0.8c0.6-0.3,1.1-0.6,1.7-1h-2.4c-0.3,0-0.4-0.1-0.4-0.3v-7.3C91.4,53.1,91.5,53,91.8,53z M90.7,42.2h5.6v-1.3
			c0-0.1,0.1-0.2,0.3-0.2c1.2,0,1.7,0.1,1.7,0.3c0,0.2-0.1,0.3-0.2,0.3c-0.1,0-0.2,0.2-0.2,0.4v0.4h5.6c0.1,0,0.2,0.1,0.2,0.3v0.6
			c0,0.3-0.1,0.4-0.2,0.4H98v1.1h4.6c0.1,0,0.2,0.1,0.2,0.3v0.6c0,0.3-0.1,0.4-0.2,0.4H91.7c-0.1,0-0.2-0.1-0.2-0.4v-0.6
			c0-0.2,0.1-0.3,0.2-0.3h4.7v-1.1h-5.6c-0.1,0-0.2-0.1-0.2-0.4v-0.6C90.5,42.3,90.6,42.2,90.7,42.2z M90.9,46.9h12.5
			c0.3,0,0.4,0.1,0.4,0.3v4.6c0,0.2-0.1,0.3-0.4,0.3H90.9c-0.3,0-0.4-0.1-0.4-0.3v-4.6C90.5,47,90.6,46.9,90.9,46.9z M94.2,50.9v-3
			h-2.1v3H94.2z M93,55.3h8.3v-1.2H93V55.3z M93,57.6h8.3v-1.2H93V57.6z M101.3,59.7v-1.1H93v1.1H101.3z M98.2,50.9v-3h-2.3v3H98.2z
			 M102.3,50.9v-3h-2.4v3H102.3z"/>
	</g>
	<g>
		<g>
			<path class="st2" d="M249.1,46.1c0,3-2.4,5.4-5.4,5.4c-3,0-5.4-2.4-5.4-5.4c0-3,2.4-5.4,5.4-5.4
				C246.7,40.7,249.1,43.1,249.1,46.1z M243.7,39.8c-3.5,0-6.3,2.8-6.3,6.3c0,3.5,2.8,6.3,6.3,6.3c3.5,0,6.3-2.8,6.3-6.3
				C250,42.6,247.2,39.8,243.7,39.8z"/>
		</g>
		<g>
			<path class="st2" d="M240.8,49.8v-7.4h3.3c0.7,0,1.2,0.1,1.5,0.2c0.3,0.1,0.6,0.4,0.8,0.7c0.2,0.3,0.3,0.7,0.3,1.1
				c0,0.5-0.2,1-0.5,1.3c-0.3,0.4-0.9,0.6-1.6,0.7c0.3,0.1,0.5,0.2,0.6,0.4c0.3,0.3,0.6,0.6,0.8,1l1.3,2h-1.2l-1-1.5
				c-0.3-0.4-0.5-0.8-0.7-1c-0.2-0.2-0.4-0.4-0.5-0.5c-0.1-0.1-0.3-0.2-0.4-0.2c-0.1,0-0.3,0-0.5,0h-1.1v3.3H240.8z M241.8,45.7h2.1
				c0.4,0,0.8,0,1.1-0.1c0.3-0.1,0.4-0.2,0.6-0.4c0.1-0.2,0.2-0.4,0.2-0.7c0-0.4-0.1-0.6-0.4-0.9c-0.3-0.2-0.7-0.3-1.2-0.3h-2.3
				V45.7z"/>
		</g>
	</g>
</g>
</svg>
